# xmcd
#
# Track frame offsets:
#   150
#   15250
#   29845
#   43717
#   59799
#   74580
#   88816
#   100726
#   115154
#   129947
#   136325
#   153024
#   168301
#   179459
#   191256
#   207557
#   214149
#   228360
#   240051
#   253725
#   267717
#   279820
#   293367
#   302176
#   315742
#   331303
#
# Disc length: 4630 seconds
#
# Revision: 0
# Processed by: cddbd v1.5.2PL0 Copyright (c) Steve Scherf et al.
# Submitted via: uFREEDB ActiveX Control 1.5
#
DISCID=7512141a
DTITLE=Especial Sertanejo - Especial Sertanejo
DYEAR=1900
DGENRE=Country
TTITLE0=Especial Sertanejo
TTITLE1=Especial Sertanejo
TTITLE2=Especial Sertanejo
TTITLE3=Especial Sertanejo
TTITLE4=Especial Sertanejo
TTITLE5=Especial Sertanejo
TTITLE6=Especial Sertanejo
TTITLE7=Especial Sertanejo
TTITLE8=Especial Sertanejo
TTITLE9=Especial Sertanejo
TTITLE10=Especial Sertanejo
TTITLE11=Especial Sertanejo
TTITLE12=Especial Sertanejo
TTITLE13=Especial Sertanejo
TTITLE14=Especial Sertanejo
TTITLE15=Especial Sertanejo
TTITLE16=Especial Sertanejo
TTITLE17=Especial Sertanejo
TTITLE18=Especial Sertanejo
TTITLE19=Especial Sertanejo
TTITLE20=Especial Sertanejo
TTITLE21=Especial Sertanejo
TTITLE22=Especial Sertanejo
TTITLE23=Especial Sertanejo
TTITLE24=Especial Sertanejo
TTITLE25=Especial Sertanejo
EXTD=
EXTT0=
EXTT1=
EXTT2=
EXTT3=
EXTT4=
EXTT5=
EXTT6=
EXTT7=
EXTT8=
EXTT9=
EXTT10=
EXTT11=
EXTT12=
EXTT13=
EXTT14=
EXTT15=
EXTT16=
EXTT17=
EXTT18=
EXTT19=
EXTT20=
EXTT21=
EXTT22=
EXTT23=
EXTT24=
EXTT25=
PLAYORDER=
